<?xml version="1.0"?>
<!DOCTYPE svg PUBLIC '-//W3C//DTD SVG 1.1//EN' 'http://www.w3.org/Graphics/SVG/1.1/DTD/svg11.dtd'>
<svg enable-background="new -56.67 -151 1024 1024" height="1024px" version="1.1"
    viewBox="-56.67 -151 1024 1024" width="1024px" xml:space="preserve"
    xmlns="http://www.w3.org/2000/svg" xmlns:xlink="http://www.w3.org/1999/xlink"><defs/><path d="M889.66,0H24C10.74,0,0,10.75,0,24v584.67c0,13.25,10.74,24,24,24h328.97c0,0.18-0.01,0.4-0.02,0.66  c-0.3,7.43-2.09,44.67-8.95,73.34c0,0-2.5,11.66-8.67,12.16c0,0-25.67,3.17-34.5,6.5v3.17h1.5v3.13h307.75v-3.13h2.58v-3  c0,0-12.83-4.17-37-7.17c0,0-3.83-0.16-5.5-7.16c0,0-8.41-41.35-10.521-77.84c-0.01-0.22-0.02-0.44-0.04-0.66H889.66  c13.26,0,24-10.75,24-24V24C913.66,10.75,902.92,0,889.66,0z M880.663,514h-847V33.667h847V514z" fill="#222"/></svg>